# xmcd
#
# Track frame offsets: 
#        150
#        14331
#        28183
#        40211
#        53634
#        66957
#        79944
#        92173
#        102506
#        114588
#        126735
#        137986
#        150669
#        163771
#        178011
#        191196
#        203506
#        217078
#        229613
#        243199
#
# Disc length: 3362 seconds
#
# Revision: 0
# Processed by: cddbd v1.5.2PL0 Copyright (c) Steve Scherf et al.
# Submitted via: ExactAudioCopy v0.99pb4
#
DISCID=240d2014
DTITLE=Various Artist - The Blues - Third Floor Blues
DYEAR=2006
DGENRE=Blues
TTITLE0=John Lee Hooker - Boogie Chillen'
TTITLE1=Billie Holliday - Strange Fruit
TTITLE2=Amos Milburn - Pool-Playin' Blues
TTITLE3=Big Memphis Ma Rainey - Call Me Anything (But Call Me)
TTITLE4=Lightning Slim - Lightning's Bad Luck
TTITLE5=Muddy Waters - Mannish Boy
TTITLE6=Clyde McCoy - Blues in the Night
TTITLE7=Robert Johnson - Little Queen of Spades
TTITLE8=Floyd Dixon -  Moonshine
TTITLE9=Gwen Johnson with the Quinton Batiste Orchestra - A Trumpet Bl
TTITLE9=ows Away the Blues
TTITLE10=Little Caesar - Goodbye Baby
TTITLE11=Big Bill Broonzy - Bad Acting Woman
TTITLE12=Little Willie Littlefield - Pleading at Midnight
TTITLE13=Blind Blake - Detroit Bound Blues
TTITLE14=Jimmy Witherspoon - Third Floor Blues
TTITLE15=Elmore Nixon with Henry Hayes and His 4 Kings - Alabama Blues
TTITLE16=Fats Waller - Royal Garden Blues
TTITLE17=Blind Lemon Jefferson - Jack o' Diamonds Blues
TTITLE18=James Cotton - Cotton Crop Blues
TTITLE19=Wynonie Harris - Wine, Wine Sweet Wine
EXTD=
EXTT0=
EXTT1=
EXTT2=
EXTT3=
EXTT4=
EXTT5=
EXTT6=
EXTT7=
EXTT8=
EXTT9=
EXTT10=
EXTT11=
EXTT12=
EXTT13=
EXTT14=
EXTT15=
EXTT16=
EXTT17=
EXTT18=
EXTT19=
PLAYORDER=
